<svg width="23" height="23" viewBox="0 0 23 23" fill="none" xmlns="http://www.w3.org/2000/svg">
<path d="M18.9 3.5H3.49998C3.12867 3.5 2.77258 3.6475 2.51003 3.91005C2.24748 4.1726 2.09998 4.5287 2.09998 4.9V17.5C2.09998 17.8713 2.24748 18.2274 2.51003 18.4899C2.77258 18.7525 3.12867 18.9 3.49998 18.9H18.9C19.2713 18.9 19.6274 18.7525 19.8899 18.4899C20.1525 18.2274 20.3 17.8713 20.3 17.5V4.9C20.3 4.5287 20.1525 4.1726 19.8899 3.91005C19.6274 3.6475 19.2713 3.5 18.9 3.5ZM3.49998 5.7C3.49998 5.25817 3.85815 4.9 4.29998 4.9H6.99998V17.5H4.29998C3.85815 17.5 3.49998 17.1418 3.49998 16.7V5.7ZM18.9 16.7C18.9 17.1418 18.5418 17.5 18.1 17.5H8.39998V4.9H18.1C18.5418 4.9 18.9 5.25817 18.9 5.7V16.7Z" fill="white"/>
</svg>
